# xmcd
#
# Track frame offsets: 
#        150
#        12115
#        24989
#        35833
#        49602
#        63057
#        76305
#        90898
#        101211
#        111926
#        124709
#        136501
#        148789
#        162357
#        175272
#        189166
#        203096
#        215363
#        229503
#        240075
#        253945
#        264610
#        276538
#        288068
#        298722
#
# Disc length: 4163 seconds
#
# Revision: 0
# Processed by: cddbd v1.5.2PL0 Copyright (c) Steve Scherf et al.
# Submitted via: ExactAudioCopy v1.0b3
#
DISCID=56104119
DTITLE=Various Artist - Ronnie I.'s Best Remembered 25 Ballad Recordings ('54
DTITLE='57)
DYEAR=1900
DGENRE=Vocal
TTITLE0=Avons - Baby
TTITLE1=Channels - The Gleam In Your Eyes
TTITLE2=Charts - Why Do You Crythe Wind
TTITLE3=Diablos - The Wind
TTITLE4=Fi-Tones Quintette - It Wasn't A Lie
TTITLE5=Flamingos - I'll Be Home
TTITLE6=Harptones - My Memories Of You
TTITLE7=Heartbeats - Crazy For You
TTITLE8=Hurricanes - Poor Little Dancing Girl
TTITLE9=Jacks - Why Don't You Write Me
TTITLE10=Jesters - So Strange
TTITLE11=Keytones - Seven Wonders Of The World
TTITLE12=Matadors - Vengeance
TTITLE13=Meadowlarks - Heaven And Paradise
TTITLE14=Moonglows - Most Of All
TTITLE15=Nutmegs - Ship Of Love
TTITLE16=Paragons - Let's Start All Over Again
TTITLE17=Rivileers - A Thousand Stars
TTITLE18=Solitaires - The Angels Sang
TTITLE19=Sounds - Sweet Sixteen
TTITLE20=Spaniels - You Painted Pictures
TTITLE21=Valentines - Tonight Kathleen
TTITLE22=Valentines - Nature's Creation
TTITLE23=Velours - Can I Come Over Tonight
TTITLE24=Wheels - My Heart's Desire
EXTD=
EXTT0=
EXTT1=
EXTT2=
EXTT3=
EXTT4=
EXTT5=
EXTT6=
EXTT7=
EXTT8=
EXTT9=
EXTT10=
EXTT11=
EXTT12=
EXTT13=
EXTT14=
EXTT15=
EXTT16=
EXTT17=
EXTT18=
EXTT19=
EXTT20=
EXTT21=
EXTT22=
EXTT23=
EXTT24=
PLAYORDER=
